<svg xmlns="http://www.w3.org/2000/svg" viewBox="0 0 690.9 238.36">
	<path fill="#2f5597" d="M61.81,164.3q16.35,0,35.41-15.88V81.48H75.33V59.71h46.24v102h21.18v21.65H97.22V169.12Q75.8,185.49,56.51,185.48q-17.41,0-25.71-10.36t-8.29-34.35V81.48H5.21V59.71H46.86v86.12q0,9.53,3.47,14T61.81,164.3Z" transform="translate(-4.21 -3.35)"/>
	<path fill="#39a0ed" d="M216.52,161.71v21.65H154V161.71h19.3V81.48H154V59.71h43.65v102ZM199.1,18.06a14.14,14.14,0,0,1-4.35,10.35,14.11,14.11,0,0,1-10.35,4.36,13.74,13.74,0,0,1-10.24-4.36,14.34,14.34,0,0,1-4.23-10.35,14.34,14.34,0,0,1,4.23-10.35A13.78,13.78,0,0,1,184.4,3.35a14.47,14.47,0,0,1,14.7,14.71Z" transform="translate(-4.21 -3.35)"/>
	<path fill="#17bebb" d="M335.81,77.59V59.71h46.48V81.48H359.93v92.7q0,32.35-16.29,49.95t-47.59,17.58q-29.66,0-50.59-16.7l15.64-17.53a68.75,68.75,0,0,0,17,9.35A53.85,53.85,0,0,0,296.75,220q18.36,0,28.71-11.41t10.35-30.24V166.77a55.48,55.48,0,0,1-20.29,14.83A60.63,60.63,0,0,1,291,187a56.45,56.45,0,0,1-30.89-8.71,61,61,0,0,1-21.41-23.12,65.86,65.86,0,0,1-7.7-31.59A68,68,0,0,1,239.05,91,63.58,63.58,0,0,1,261.1,67a56.55,56.55,0,0,1,31.06-8.94,54.77,54.77,0,0,1,22.89,4.83A73.09,73.09,0,0,1,335.81,77.59Zm-40.23,87.65a38.74,38.74,0,0,0,20.82-5.76A39.91,39.91,0,0,0,330.87,144a44.3,44.3,0,0,0,5.18-21.06,43,43,0,0,0-5.18-20.36,42,42,0,0,0-14.35-15.76,38,38,0,0,0-40.59-.24,39.71,39.71,0,0,0-14.12,15.53,45.17,45.17,0,0,0-5.06,21.06,46.63,46.63,0,0,0,4.83,21.18,37.68,37.68,0,0,0,13.7,15.29A37,37,0,0,0,295.58,165.24Z" transform="translate(-4.21 -3.35)"/>
	<path fill="#ffbf00" d="M499.23,77.59V59.71H545.7V81.48H523.35v92.7q0,32.35-16.3,49.95t-47.59,17.58q-29.64,0-50.59-16.7l15.65-17.53a68.7,68.7,0,0,0,17,9.35A53.91,53.91,0,0,0,460.17,220q18.36,0,28.71-11.41t10.35-30.24V166.77a55.48,55.48,0,0,1-20.29,14.83A60.63,60.63,0,0,1,454.41,187a56.43,56.43,0,0,1-30.89-8.71,61,61,0,0,1-21.41-23.12,65.86,65.86,0,0,1-7.71-31.59A68.08,68.08,0,0,1,402.46,91a63.61,63.61,0,0,1,22.06-24,56.52,56.52,0,0,1,31.06-8.94,54.69,54.69,0,0,1,22.88,4.83A73.27,73.27,0,0,1,499.23,77.59ZM459,165.24a38.75,38.75,0,0,0,20.83-5.76A40,40,0,0,0,494.29,144a44.29,44.29,0,0,0,5.17-21.06,43,43,0,0,0-5.17-20.36,42.1,42.1,0,0,0-14.35-15.76,38,38,0,0,0-40.59-.24,39.71,39.71,0,0,0-14.12,15.53,45.05,45.05,0,0,0-5.06,21.06A46.75,46.75,0,0,0,425,144.3a37.78,37.78,0,0,0,13.71,15.29A37,37,0,0,0,459,165.24Z" transform="translate(-4.21 -3.35)"/>
	<path fill="#f46036" d="M599.7,81.48l26.83,69.88,26-69.88H636.06V59.71h59.06V81.48H676.88L615.82,238.77H574.64V217.6H599l14.7-36.36L573.23,81.48h-20.7V59.71h61.88V81.48Z" transform="translate(-4.21 -3.35)"/>
	<rect fill="#f46036" y="214.23" width="212.3" height="21.19"/>
	<rect fill="#17bebb" x="0.88" y="4" width="148.95" height="21.19"/>
	<rect fill="#f46036" x="210.77" y="4" width="480.01" height="21.19"/>
</svg>